<svg id="svg" version="1.1" xmlns="http://www.w3.org/2000/svg" xmlns:xlink="http://www.w3.org/1999/xlink" viewBox="0, 0, 400,299.3377483443708"><g id="svgg"><path id="path1" d="M103.743 68.396 C 102.590 68.620,101.108 69.035,100.449 69.319 C 99.790 69.602,97.365 70.215,95.060 70.680 C 89.270 71.849,76.187 78.195,72.458 81.644 C 68.599 85.212,62.954 95.827,59.511 105.988 L 57.635 111.527 57.638 117.964 L 57.641 124.401 62.057 137.575 C 67.668 154.309,71.684 162.952,77.037 169.806 C 77.764 170.736,78.856 172.687,79.465 174.142 C 81.127 178.111,81.895 178.986,96.666 193.719 L 110.329 207.348 116.018 211.129 C 122.628 215.524,138.348 223.606,144.523 225.786 C 146.465 226.471,148.793 227.295,149.696 227.615 C 150.599 227.936,153.024 228.379,155.085 228.600 C 157.537 228.863,159.764 229.312,161.527 229.898 C 163.009 230.391,165.457 231.009,166.966 231.270 C 168.476 231.532,170.951 232.155,172.465 232.654 C 174.354 233.277,176.314 233.660,178.703 233.875 C 181.301 234.108,183.022 234.466,185.479 235.283 L 188.772 236.377 202.695 236.377 L 216.617 236.377 219.989 235.261 C 222.992 234.267,223.875 234.113,228.072 233.855 C 232.255 233.597,233.138 233.444,235.928 232.495 C 237.657 231.906,240.186 231.160,241.549 230.836 C 243.033 230.484,246.213 229.242,249.483 227.739 C 255.160 225.130,257.888 224.114,261.667 223.199 C 266.917 221.929,285.549 212.051,289.726 208.324 C 291.073 207.122,292.959 205.672,293.917 205.102 C 297.253 203.118,299.296 201.344,306.320 194.332 C 314.164 186.502,314.940 185.486,318.255 178.700 C 320.877 173.334,321.204 172.034,321.434 166.047 C 322.145 147.525,313.611 129.689,300.000 121.252 C 298.436 120.282,296.010 118.462,294.611 117.208 C 292.057 114.918,289.299 113.103,286.618 111.947 C 283.770 110.719,275.244 108.115,272.604 107.668 C 271.121 107.417,269.302 106.990,268.562 106.719 C 264.661 105.293,264.829 105.307,250.299 105.092 L 236.377 104.886 233.084 103.757 L 229.790 102.627 222.455 102.395 C 215.571 102.177,214.982 102.114,212.874 101.361 C 211.639 100.919,208.952 100.231,206.903 99.831 C 203.906 99.246,202.411 98.753,199.268 97.312 C 197.118 96.327,192.083 94.436,188.078 93.110 C 181.300 90.866,180.102 90.353,170.713 85.671 C 160.290 80.473,158.200 79.532,154.641 78.435 C 153.488 78.080,150.928 77.041,148.952 76.126 C 142.993 73.366,135.434 71.022,131.332 70.663 C 128.804 70.441,127.008 70.072,124.505 69.261 L 121.108 68.161 113.473 68.075 C 107.952 68.013,105.258 68.102,103.743 68.396 M124.205 71.054 C 126.707 71.867,128.498 72.237,131.004 72.456 C 135.026 72.809,142.802 75.217,148.271 77.804 C 150.037 78.639,153.001 79.818,154.857 80.424 C 157.140 81.169,161.772 83.287,169.162 86.967 C 179.553 92.141,180.443 92.523,187.275 94.749 C 191.228 96.037,195.967 97.798,197.807 98.663 C 201.893 100.585,203.274 101.044,206.737 101.631 C 208.220 101.883,210.645 102.517,212.127 103.041 C 214.781 103.980,214.928 103.997,222.156 104.205 L 229.491 104.416 232.934 105.560 L 236.377 106.704 250.299 106.892 L 264.222 107.080 266.901 108.032 C 268.374 108.556,270.799 109.193,272.290 109.447 C 279.781 110.727,288.756 114.529,292.982 118.213 C 294.460 119.501,297.216 121.575,299.107 122.821 C 307.932 128.636,313.310 136.249,317.514 148.870 C 319.902 156.040,320.608 167.188,319.007 172.455 C 318.295 174.798,314.348 182.622,312.770 184.821 C 310.330 188.217,296.608 201.443,293.859 203.047 C 292.541 203.816,290.403 205.366,289.109 206.489 C 285.059 210.007,283.913 210.712,274.850 215.252 C 264.273 220.552,262.570 221.260,260.428 221.251 C 256.868 221.236,255.534 219.842,254.671 215.236 C 253.525 209.121,251.867 206.018,246.627 200.182 C 244.985 198.353,242.681 195.442,241.506 193.713 C 238.473 189.246,236.624 187.595,228.590 182.181 C 224.686 179.549,220.597 176.648,219.503 175.732 C 213.538 170.739,203.108 166.009,193.413 163.901 C 191.519 163.489,188.954 162.831,187.711 162.439 C 186.469 162.046,184.583 161.571,183.520 161.383 C 182.457 161.195,179.835 160.588,177.695 160.035 C 175.554 159.482,172.590 158.874,171.108 158.683 C 169.626 158.493,166.884 157.938,165.016 157.450 C 156.545 155.239,122.721 155.149,113.772 157.315 C 112.043 157.734,108.698 158.280,106.337 158.528 C 99.390 159.260,92.812 161.214,86.035 164.559 C 77.960 168.543,77.192 168.149,71.718 157.209 C 68.466 150.710,68.096 149.769,63.868 137.245 L 59.431 124.102 59.431 117.964 L 59.431 111.826 61.316 106.323 C 63.364 100.340,69.257 88.083,71.477 85.187 C 73.531 82.508,75.785 81.013,83.683 77.094 C 90.822 73.552,92.878 72.769,96.257 72.308 C 97.081 72.195,99.169 71.651,100.898 71.099 C 104.934 69.809,104.827 69.820,113.473 69.890 L 120.808 69.950 124.205 71.054 " stroke="none" fill="#f45c1c" fill-rule="evenodd"></path><path id="path2" d="M105.090 69.962 C 104.513 70.035,102.627 70.546,100.898 71.099 C 99.169 71.651,97.081 72.195,96.257 72.308 C 89.569 73.221,74.742 80.927,71.477 85.187 C 69.257 88.083,63.364 100.340,61.316 106.323 L 59.431 111.826 59.431 117.964 L 59.431 124.102 63.868 137.245 C 68.096 149.769,68.466 150.710,71.718 157.209 C 77.192 168.149,77.960 168.543,86.035 164.559 C 92.812 161.214,99.390 159.260,106.337 158.528 C 108.698 158.280,112.043 157.734,113.772 157.315 C 122.721 155.149,156.545 155.239,165.016 157.450 C 166.884 157.938,169.626 158.493,171.108 158.683 C 172.590 158.874,175.554 159.482,177.695 160.035 C 179.835 160.588,182.457 161.195,183.520 161.383 C 184.583 161.571,186.469 162.046,187.711 162.439 C 188.954 162.831,191.519 163.489,193.413 163.901 C 203.108 166.009,213.538 170.739,219.503 175.732 C 220.597 176.648,224.686 179.549,228.590 182.181 C 236.624 187.595,238.473 189.246,241.506 193.713 C 242.681 195.442,244.985 198.353,246.627 200.182 C 251.867 206.018,253.525 209.121,254.671 215.236 C 255.534 219.842,256.868 221.236,260.428 221.251 C 262.570 221.260,264.273 220.552,274.850 215.252 C 283.913 210.712,285.059 210.007,289.109 206.489 C 290.403 205.366,292.541 203.816,293.859 203.047 C 296.608 201.443,310.330 188.217,312.770 184.821 C 314.348 182.622,318.295 174.798,319.007 172.455 C 320.608 167.188,319.902 156.040,317.514 148.870 C 313.310 136.249,307.932 128.636,299.107 122.821 C 297.216 121.575,294.460 119.501,292.982 118.213 C 288.756 114.529,279.781 110.727,272.290 109.447 C 270.799 109.193,268.374 108.556,266.901 108.032 L 264.222 107.080 250.299 106.892 L 236.377 106.704 232.934 105.560 L 229.491 104.416 222.156 104.205 C 214.928 103.997,214.781 103.980,212.127 103.041 C 210.645 102.517,208.220 101.883,206.737 101.631 C 203.274 101.044,201.893 100.585,197.807 98.663 C 195.967 97.798,191.228 96.037,187.275 94.749 C 180.443 92.523,179.553 92.141,169.162 86.967 C 161.772 83.287,157.140 81.169,154.857 80.424 C 153.001 79.818,150.037 78.639,148.271 77.804 C 142.802 75.217,135.026 72.809,131.004 72.456 C 128.498 72.237,126.707 71.867,124.205 71.054 L 120.808 69.950 113.473 69.890 C 109.439 69.857,105.666 69.890,105.090 69.962 " stroke="none" fill="#040404" fill-rule="evenodd"></path></g></svg>
